<?xml version="1.0" encoding="utf-8"?>
<!-- Generator: Adobe Illustrator 27.3.1, SVG Export Plug-In . SVG Version: 6.00 Build 0)  -->
<svg version="1.1" id="Layer_1" xmlns="http://www.w3.org/2000/svg" xmlns:xlink="http://www.w3.org/1999/xlink" x="0px" y="0px"
	 viewBox="0 0 301.02 114.13" style="enable-background:new 0 0 301.02 114.13;" xml:space="preserve">
<style type="text/css">
	.st0{fill-rule:evenodd;clip-rule:evenodd;fill:#F26722;}
	.st1{fill:#2B3187;}
	.st2{fill:#CB2026;}
	.st3{fill-rule:evenodd;clip-rule:evenodd;fill:#EF3D23;}
	.st4{fill:#FFC316;}
	.st5{fill:#8C89C2;}
</style>
<g>
	<g>
		<path class="st0" d="M48.13,19.75L16.39,59.16l31.74,40.72l32.06-40.71L48.13,19.75z M57.81,59.07c-1.23,0.73-2.69,1.27-4.36,1.61
			c-1.68,0.34-3.48,0.54-5.41,0.6c-0.33,0-0.57,0.05-0.71,0.15c-0.14,0.1-0.21,0.37-0.21,0.81v7.02c0,1.1,0.11,1.97,0.33,2.63
			c0.22,0.66,0.57,1.17,1.04,1.54c0.47,0.37,1.05,0.63,1.74,0.8c0.69,0.16,1.5,0.28,2.43,0.34c0.24,0,0.4,0.08,0.5,0.25
			c0.09,0.17,0.14,0.36,0.14,0.56c0,0.21-0.05,0.39-0.16,0.54c-0.11,0.15-0.28,0.23-0.52,0.23c-1.73,0-3.21-0.06-4.46-0.19
			c-1.24-0.13-2.44-0.19-3.61-0.19c-1.23,0-2.43,0.06-3.62,0.19c-1.19,0.12-2.35,0.19-3.48,0.19c-0.19,0-0.33-0.08-0.42-0.23
			c-0.09-0.15-0.15-0.32-0.16-0.52c-0.02-0.19,0.02-0.37,0.12-0.54c0.09-0.17,0.25-0.27,0.47-0.3c0.91-0.09,1.65-0.22,2.23-0.39
			c0.57-0.16,1.02-0.42,1.34-0.77c0.32-0.35,0.54-0.82,0.66-1.4c0.12-0.58,0.18-1.34,0.18-2.3V51.79c0-0.7-0.02-1.41-0.06-2.11
			c-0.04-0.7-0.15-1.35-0.32-1.95c-0.17-0.59-0.43-1.1-0.77-1.51c-0.34-0.41-0.8-0.68-1.38-0.81c-0.35-0.08-0.71-0.16-1.11-0.24
			c-0.39-0.08-0.76-0.13-1.11-0.16c-0.19,0-0.33-0.08-0.44-0.23c-0.1-0.16-0.15-0.33-0.15-0.53c0-0.2,0.05-0.37,0.15-0.53
			c0.1-0.16,0.25-0.23,0.44-0.23c1.08,0,2.06,0.05,2.93,0.14c0.87,0.1,1.89,0.14,3.05,0.14c1.93-0.03,3.53-0.09,4.8-0.17
			c1.27-0.08,2.48-0.12,3.64-0.12c1.29,0,2.56,0.13,3.8,0.4c1.24,0.27,2.34,0.73,3.29,1.38c0.95,0.66,1.71,1.52,2.29,2.58
			c0.57,1.06,0.86,2.36,0.86,3.89c0,1.8-0.35,3.28-1.06,4.46C60.02,57.38,59.05,58.34,57.81,59.07z"/>
		<path class="st0" d="M50.2,45.4c-1.26,0-2.09,0.16-2.49,0.47c-0.4,0.31-0.6,0.97-0.6,1.97v10.98c0,0.25,0.07,0.41,0.21,0.48
			c0.14,0.07,0.41,0.11,0.8,0.11c1.57,0,2.89-0.12,3.95-0.36c1.06-0.24,1.91-0.64,2.56-1.21c0.64-0.56,1.1-1.29,1.38-2.19
			c0.27-0.9,0.41-2.02,0.41-3.36c0-2.51-0.47-4.29-1.4-5.33C54.09,45.92,52.48,45.4,50.2,45.4z"/>
	</g>
	<g>
		<g>
			<path class="st1" d="M106.47,29.36c2.73,0,4.81,0.48,6.23,1.42c1.73,1.14,2.7,2.8,2.7,5.19c0,5.02-4.26,7.13-7.96,7.16
				c-0.35,0-0.8-0.03-1.04-0.07l-2.01-0.52v4.71c0,2.91,0.24,3.04,3.25,3.32v1.28h-11v-1.28c2.59-0.31,2.94-0.42,2.94-3.32V34.03
				c0-2.91-0.35-3.22-2.94-3.39v-1.28H106.47z M104.39,41.09c0.42,0.21,1.11,0.35,1.83,0.35c1.59,0,4.19-0.93,4.19-5.5
				c0-3.88-2.11-5.16-4.36-5.16c-0.73,0-1.14,0.17-1.35,0.35c-0.24,0.21-0.31,0.55-0.31,1.07V41.09z"/>
			<path class="st1" d="M126.64,51.85h-9.13v-1.18c1.83-0.21,2.01-0.38,2.01-2.46v-7.58c0-1.73-0.14-1.9-1.76-2.25v-1.07
				c2.14-0.24,4.08-0.66,6.23-1.31c0,1.14,0,2.63,0,3.74c1.56-2.39,2.8-3.67,4.22-3.67c1.28,0,2.25,0.86,2.25,2.08
				c0,1.7-1.21,2.66-1.76,2.94c-0.48,0.21-0.83,0.03-1.07-0.17c-0.59-0.48-1.04-1.04-1.63-1.04c-0.52,0-1.38,0.45-2.01,1.76v6.57
				c0,2.08,0.24,2.18,2.66,2.46V51.85z"/>
			<path class="st1" d="M145.22,48.46c-2.11,3.11-4.88,3.81-6.33,3.81c-4.64,0-7.27-3.43-7.27-7.54c0-2.42,1.14-4.81,2.59-6.23
				c1.56-1.56,3.49-2.42,5.4-2.42c3.39,0,5.74,2.8,5.71,5.64c0,0.59-0.03,1.18-0.45,1.28c-0.66,0.17-5.54,0.42-8.89,0.55
				c0.14,3.67,2.18,5.54,4.67,5.54c1.35,0,2.7-0.48,3.94-1.56L145.22,48.46z M138.92,37.49c-1.38,0-2.56,1.63-2.77,4.36
				c1.42-0.03,2.73-0.07,4.19-0.1c0.48-0.03,0.69-0.1,0.69-0.69C141.06,39.32,140.27,37.49,138.92,37.49z"/>
			<path class="st1" d="M157.12,40.99c-0.9-2.42-2.08-3.53-3.7-3.53c-0.97,0-1.83,0.69-1.83,1.83c0,1.21,0.86,1.87,2.66,2.66
				c2.8,1.25,4.71,2.42,4.71,5.16c0,3.46-3.29,5.16-6.3,5.16c-1.8,0-3.67-0.69-4.39-1.04c-0.14-0.8-0.45-3.18-0.55-4.39l1.14-0.21
				c0.73,2.18,2.15,4.22,4.39,4.22c1.32,0,1.97-0.8,1.97-1.8c0-1.07-0.52-1.87-2.66-2.91c-2.28-1.11-4.5-2.32-4.5-5.19
				c0-2.73,2.25-4.88,5.92-4.88c1.66,0,2.94,0.35,3.74,0.52c0.1,0.93,0.41,3.15,0.55,4.08L157.12,40.99z"/>
			<path class="st1" d="M160.92,51.85v-1.18c1.87-0.24,2.08-0.38,2.08-2.84v-6.75c0-2.32-0.17-2.46-1.8-2.66v-1.14
				c2.18-0.24,4.36-0.69,6.26-1.25c0,1.45,0,2.87,0,4.29v7.51c0,2.35,0.14,2.6,2.15,2.84v1.18H160.92z M164.97,33.93
				c-1.32,0-2.49-1.11-2.49-2.46c0-1.42,1.18-2.46,2.53-2.46c1.38,0,2.49,1.04,2.49,2.46C167.5,32.82,166.39,33.93,164.97,33.93z"/>
			<path class="st1" d="M189.19,50.95c-0.83,0.14-4.01,0.55-6.78,1.35c0-0.66,0-1.31,0-2.01c-0.62,0.42-1.49,0.93-2.11,1.35
				c-0.83,0.52-1.35,0.62-1.73,0.62c-2.94,0-7.13-2.53-7.13-7.68c0-4.74,4.19-8.51,9.58-8.51c0.24,0,0.83,0,1.38,0.1V32.2
				c0-1.83-0.17-2.01-2.32-2.28v-1.14c2.28-0.24,5.09-0.69,6.82-1.18c0,1.35,0,2.56,0,4.05v15.85c0,1.87,0.21,2.04,1.52,2.21
				l0.76,0.1V50.95z M182.41,39.36c-0.38-0.97-1.28-1.73-2.59-1.73c-1.07,0-3.39,0.73-3.39,5.74c0,4.53,2.53,6.19,4.08,6.23
				c0.62,0,1.14-0.1,1.9-0.59V39.36z"/>
			<path class="st1" d="M204.45,48.46c-2.11,3.11-4.88,3.81-6.33,3.81c-4.64,0-7.27-3.43-7.27-7.54c0-2.42,1.14-4.81,2.59-6.23
				c1.56-1.56,3.49-2.42,5.4-2.42c3.39,0,5.74,2.8,5.71,5.64c0,0.59-0.03,1.18-0.45,1.28c-0.66,0.17-5.54,0.42-8.89,0.55
				c0.14,3.67,2.18,5.54,4.67,5.54c1.35,0,2.7-0.48,3.94-1.56L204.45,48.46z M198.15,37.49c-1.38,0-2.56,1.63-2.77,4.36
				c1.42-0.03,2.73-0.07,4.19-0.1c0.48-0.03,0.69-0.1,0.69-0.69C200.3,39.32,199.5,37.49,198.15,37.49z"/>
			<path class="st1" d="M216.56,51.85v-1.18c1.45-0.21,1.56-0.35,1.56-2.73v-5.92c0-2.46-1.21-3.22-2.42-3.22
				c-0.9,0-1.66,0.35-2.59,1.04v8.37c0,2.11,0.14,2.25,1.56,2.46v1.18h-8.03v-1.18c1.8-0.31,2.01-0.35,2.01-2.6v-7.2
				c0-2.08-0.28-2.18-1.8-2.49v-1.11c2.01-0.24,4.39-0.69,6.33-1.31c-0.03,0.48-0.07,1.7-0.07,2.49c0.69-0.48,1.42-1,2.21-1.49
				c1.04-0.62,1.7-0.9,2.7-0.9c2.8,0,4.57,2.04,4.57,5.57v6.54c0,2.15,0.21,2.25,1.87,2.49v1.18H216.56z"/>
			<path class="st1" d="M233.34,51.88c-0.59,0.28-1.14,0.38-1.38,0.38c-2.66,0-4.26-1.25-4.26-4.39v-9.65h-2.21l-0.21-0.42l1-1.31
				h1.42v-2.87c1.18-0.83,2.87-1.94,4.08-2.77l0.45,0.28c-0.03,0.93-0.1,2.77-0.07,5.36h3.46c0.31,0.35,0.17,1.42-0.28,1.73h-3.18
				v8.48c0,2.7,1.11,3.01,1.76,3.01c0.59,0,1.04-0.1,1.66-0.35l0.35,1.25L233.34,51.88z"/>
			<path class="st1" d="M237.21,51.85v-1.18c1.87-0.24,2.08-0.38,2.08-2.84v-6.75c0-2.32-0.17-2.46-1.8-2.66v-1.14
				c2.18-0.24,4.36-0.69,6.26-1.25c0,1.45,0,2.87,0,4.29v7.51c0,2.35,0.14,2.6,2.15,2.84v1.18H237.21z M241.26,33.93
				c-1.32,0-2.49-1.11-2.49-2.46c0-1.42,1.18-2.46,2.53-2.46c1.38,0,2.49,1.04,2.49,2.46C243.79,32.82,242.68,33.93,241.26,33.93z"
				/>
			<path class="st1" d="M259.22,52.26c-0.93,0-1.69-0.31-2.14-0.73c-0.48-0.42-0.73-0.9-0.9-1.28c-1.31,0.86-3.01,2.01-3.67,2.01
				c-2.98,0-4.71-2.32-4.71-4.46c0-1.83,0.83-2.66,2.66-3.39c2.04-0.76,4.78-1.59,5.57-2.28V40.6c0-1.8-0.66-2.8-2.15-2.8
				c-0.59,0-1.07,0.28-1.38,0.69c-0.41,0.55-0.55,1.25-0.83,2.28c-0.24,0.93-0.8,1.18-1.49,1.18c-0.9,0-2.04-0.83-2.04-1.8
				c0-0.62,0.42-1.07,1.21-1.63c1.56-1.04,3.6-2.04,5.54-2.46c1.38,0,2.56,0.31,3.56,1c1.49,1.04,1.9,2.49,1.9,4.26v5.99
				c0,1.66,0.55,2.08,1.11,2.08c0.35,0,0.69-0.1,1.07-0.28l0.38,1.18L259.22,52.26z M256.03,43.55c-0.62,0.35-1.25,0.69-1.94,1.07
				c-1.07,0.55-1.69,1.18-1.69,2.35c0,1.94,1.35,2.63,2.11,2.63c0.48,0,0.97-0.03,1.52-0.55C256.03,47.42,256.03,45.17,256.03,43.55
				z"/>
			<path class="st1" d="M263.71,51.85v-1.18c1.97-0.31,2.04-0.48,2.04-2.66V32.27c0-1.8-0.21-2.01-2.01-2.39v-1.11
				c2.39-0.24,4.81-0.66,6.47-1.18c0,1.56,0,3.11,0,4.71v15.71c0,2.28,0.1,2.42,2.08,2.66v1.18H263.71z"/>
		</g>
	</g>
	<g>
		<g>
			<path class="st2" d="M109.57,71.21c-1.04,0.18-1.16,0.25-1.16,1.49v1.4c0,0.65,0.02,1.27,0.11,1.76c-0.93,0.16-2.92,0.6-4.4,0.6
				c-4.27,0-6.72-2.6-6.72-6.19c0-4.09,3.32-6.14,7.19-6.14c1.47,0,3.07,0.36,3.67,0.42c0.04,0.8,0.18,2.18,0.31,3.18l-0.71,0.13
				c-0.44-1.54-1.11-2.32-2.23-2.71c-0.42-0.15-1.09-0.22-1.54-0.22c-2.2,0-3.85,1.91-3.85,5.03c0,3.2,1.13,5.72,4.11,5.72
				c0.36,0,0.84-0.05,1.16-0.25c0.27-0.16,0.42-0.47,0.42-1.04v-1.6c0-1.27-0.25-1.4-1.78-1.58v-0.67h5.43V71.21z"/>
			<path class="st2" d="M122.27,76.29c-0.11,0-0.33,0-0.54-0.02c-2.31-0.11-2.98-0.6-3.52-1.36c-0.73-1-1.25-2.11-1.87-3.2
				c-0.27-0.49-0.53-0.6-1.11-0.6l-0.36-0.02v2.65c0,1.47,0.18,1.6,1.54,1.76v0.67h-5.56v-0.67c1.38-0.15,1.54-0.29,1.54-1.76v-6.96
				c0-1.43-0.18-1.63-1.54-1.74v-0.67h5.27c1.62,0,2.54,0.18,3.29,0.69c0.73,0.49,1.22,1.29,1.22,2.42c0,1.62-1.07,2.47-2.27,2.94
				c0.27,0.54,0.98,1.73,1.53,2.56c0.64,1,1.04,1.49,1.38,1.89c0.42,0.47,0.62,0.62,1.14,0.8L122.27,76.29z M115.35,70.35
				c0.78,0,1.38-0.13,1.78-0.47c0.6-0.51,0.85-1.2,0.85-2.13c0-1.93-1.11-2.62-2.13-2.62c-0.49,0-0.73,0.07-0.84,0.18
				c-0.13,0.11-0.16,0.33-0.16,0.69v4.34H115.35z"/>
			<path class="st2" d="M129.82,76.18v-0.67c1.14-0.16,1.14-0.36,0.89-1.14c-0.18-0.54-0.47-1.36-0.74-2.09h-3.54
				c-0.2,0.56-0.45,1.25-0.64,1.82c-0.38,1.14,0.05,1.29,1.49,1.42v0.67h-4.49v-0.67c1.14-0.15,1.43-0.31,2.05-1.83l3.78-9.39
				l0.87-0.16c1.16,3.16,2.4,6.39,3.58,9.43c0.67,1.69,0.84,1.82,2.02,1.96v0.67H129.82z M128.23,67.5
				c-0.53,1.31-1.04,2.52-1.49,3.85h2.89L128.23,67.5z"/>
			<path class="st2" d="M141.32,64.38c2.32,0,4.03,0.49,5.19,1.58c0.93,0.85,1.63,2.13,1.63,3.96c0,2.09-0.87,3.69-2.27,4.74
				c-1.34,1.02-3.07,1.53-5.14,1.53h-4.99v-0.67c1.38-0.11,1.54-0.27,1.54-1.78v-6.9c0-1.53-0.2-1.67-1.54-1.78v-0.67H141.32z
				 M139.81,73.6c0,1.29,0.33,1.73,1.65,1.73c2.45,0,3.87-1.71,3.87-5.14c0-1.73-0.47-3.23-1.31-4.01
				c-0.76-0.76-1.71-1.02-2.92-1.02c-0.67,0-0.98,0.15-1.09,0.25c-0.16,0.16-0.2,0.47-0.2,1V73.6z"/>
			<path class="st2" d="M162.24,65.05c-1.16,0.11-1.47,0.45-1.54,1.11c-0.05,0.54-0.09,1.16-0.09,2.43v2.38
				c0,1.56-0.25,3.14-1.29,4.23c-0.84,0.87-2.12,1.25-3.41,1.25c-1.2,0-2.4-0.25-3.25-0.94c-1.05-0.8-1.56-1.91-1.56-3.94v-4.6
				c0-1.67-0.16-1.8-1.54-1.93v-0.67h5.61v0.67c-1.36,0.13-1.53,0.25-1.53,1.93v4.83c0,2.03,1,3.38,2.94,3.38
				c2.16,0,3.11-1.6,3.11-4.32v-2.27c0-1.25-0.05-1.91-0.09-2.45c-0.07-0.84-0.58-1.02-1.85-1.09v-0.67h4.5V65.05z"/>
			<path class="st2" d="M168.56,76.18v-0.67c1.14-0.16,1.14-0.36,0.89-1.14c-0.18-0.54-0.47-1.36-0.74-2.09h-3.54
				c-0.2,0.56-0.45,1.25-0.64,1.82c-0.38,1.14,0.05,1.29,1.49,1.42v0.67h-4.49v-0.67c1.14-0.15,1.44-0.31,2.05-1.83l3.78-9.39
				l0.87-0.16c1.16,3.16,2.4,6.39,3.58,9.43c0.67,1.69,0.84,1.82,2.02,1.96v0.67H168.56z M166.97,67.5
				c-0.53,1.31-1.04,2.52-1.49,3.85h2.89L166.97,67.5z"/>
			<path class="st2" d="M183.08,67.52c-0.2-0.84-0.6-1.53-0.78-1.78c-0.33-0.38-0.47-0.53-1.54-0.53h-1.16v8.54
				c0,1.53,0.18,1.63,1.8,1.76v0.67h-6.03v-0.67c1.54-0.13,1.71-0.24,1.71-1.76v-8.54h-1.11c-1.02,0-1.31,0.16-1.65,0.6
				c-0.25,0.35-0.51,1-0.74,1.73h-0.69c0.13-1.33,0.25-2.74,0.29-3.61h0.54c0.27,0.42,0.49,0.45,1.04,0.45H182
				c0.49,0,0.74-0.11,1.05-0.45h0.53c0.02,0.76,0.09,2.36,0.18,3.54L183.08,67.52z"/>
			<path class="st2" d="M195.01,73.1c-0.09,0.49-0.6,2.58-0.76,3.09h-9.43v-0.65c1.65-0.16,1.76-0.25,1.76-1.78v-6.94
				c0-1.54-0.22-1.65-1.45-1.76v-0.67h5.9c1.91,0,2.54-0.02,2.8-0.04c0.02,0.33,0.11,1.82,0.18,2.94l-0.71,0.09
				c-0.16-0.62-0.47-1.36-0.78-1.69c-0.33-0.36-0.56-0.47-1.49-0.47h-1.18c-0.69,0-0.76,0.04-0.76,0.65v3.8h1.78
				c1.02,0,1.2-0.27,1.47-1.56h0.71v4.05h-0.71c-0.29-1.34-0.44-1.56-1.49-1.56h-1.76v3.12c0,1.25,0.04,1.63,1.16,1.65h1.29
				c1.02,0,1.29-0.13,1.69-0.62c0.45-0.53,0.82-1.2,1.11-1.82L195.01,73.1z"/>
			<path class="st2" d="M206.89,67.37c-0.36-1.16-0.87-2.49-2.54-2.49c-1.05,0-1.74,0.74-1.74,1.76c0,1,0.67,1.6,2.27,2.4
				c1.94,0.96,3.18,1.91,3.18,3.71c0,2.14-1.78,3.71-4.38,3.71c-1.16,0-2.2-0.31-3.05-0.56c-0.11-0.42-0.42-2.31-0.54-3.16
				l0.71-0.16c0.36,1.14,1.38,3.12,3.16,3.12c1.11,0,1.78-0.69,1.78-1.85c0-1.05-0.65-1.67-2.18-2.49
				c-1.89-1.02-3.12-1.93-3.12-3.81c0-1.91,1.49-3.42,4.21-3.42c1.25,0,2.2,0.27,2.6,0.33c0.07,0.67,0.2,1.62,0.34,2.76
				L206.89,67.37z"/>
			<path class="st2" d="M220.78,73.06c-0.25,0.91-0.73,2.29-1.02,2.92c-0.47,0.11-1.96,0.47-3.34,0.47c-4.89,0-6.9-3.14-6.9-6.03
				c0-3.76,2.87-6.3,7.23-6.3c1.58,0,2.98,0.38,3.43,0.44c0.09,0.85,0.22,2.2,0.34,3l-0.73,0.13c-0.38-1.42-0.93-2.09-1.89-2.47
				c-0.44-0.18-1.09-0.25-1.58-0.25c-2.63,0-3.96,2.2-3.96,5.05c0,3.32,1.71,5.58,4.2,5.58c1.53,0,2.54-0.8,3.52-2.8L220.78,73.06z"
				/>
			<path class="st2" d="M235.37,65.05c-1.42,0.15-1.54,0.25-1.54,1.76v6.96c0,1.51,0.15,1.62,1.54,1.74v0.67h-5.61v-0.67
				c1.44-0.18,1.54-0.24,1.54-1.74v-3.41h-4.9v3.41c0,1.51,0.16,1.6,1.53,1.74v0.67h-5.59v-0.67c1.34-0.15,1.54-0.24,1.54-1.74
				v-6.96c0-1.51-0.16-1.65-1.54-1.76v-0.67h5.59v0.67c-1.38,0.13-1.53,0.25-1.53,1.76v2.6h4.9v-2.6c0-1.51-0.18-1.62-1.54-1.76
				v-0.67h5.61V65.05z"/>
			<path class="st2" d="M243.3,64.12c3.36,0,6.1,2.45,6.1,6.03c0,3.87-2.76,6.3-6.19,6.3c-3.63,0-6.27-2.65-6.27-6.16
				C236.95,67.19,239.16,64.12,243.3,64.12z M243.03,64.92c-1.85,0-3.22,1.82-3.22,5.03c0,3.07,1.22,5.7,3.67,5.7
				c1.73,0,3.07-1.67,3.07-5C246.56,67.07,245.14,64.92,243.03,64.92z"/>
			<path class="st2" d="M257.65,64.12c3.36,0,6.1,2.45,6.1,6.03c0,3.87-2.76,6.3-6.19,6.3c-3.63,0-6.27-2.65-6.27-6.16
				C251.3,67.19,253.51,64.12,257.65,64.12z M257.38,64.92c-1.85,0-3.21,1.82-3.21,5.03c0,3.07,1.22,5.7,3.67,5.7
				c1.73,0,3.07-1.67,3.07-5C260.9,67.07,259.49,64.92,257.38,64.92z"/>
			<path class="st2" d="M274.96,72.99c-0.15,0.78-0.65,2.71-0.82,3.2h-9.01v-0.67c1.6-0.11,1.74-0.24,1.74-1.76v-6.92
				c0-1.53-0.18-1.67-1.54-1.78v-0.67H271v0.67c-1.42,0.13-1.6,0.25-1.6,1.78v7.05c0,1,0.04,1.45,1.04,1.47
				c0.04,0.02,0.87,0.02,0.94,0.02c1.04,0,1.31-0.22,1.74-0.71c0.34-0.36,0.82-1.14,1.14-1.89L274.96,72.99z"/>
		</g>
	</g>
	<g>
		<path class="st3" d="M63.08,49c-0.57-0.98-1.32-1.78-2.26-2.38c-0.44-0.28-0.91-0.52-1.4-0.72c0.6,0.55,1.1,1.2,1.51,1.95
			c0.57,1.06,0.86,2.36,0.86,3.89c0,1.8-0.35,3.28-1.06,4.46c-0.71,1.18-1.68,2.14-2.91,2.87c-1.23,0.73-2.69,1.27-4.36,1.61
			c-1.68,0.34-3.48,0.54-5.41,0.6c-0.33,0-0.57,0.05-0.71,0.15c-0.14,0.1-0.21,0.37-0.21,0.81v7.02c0,1.1,0.11,1.97,0.33,2.63
			c0.22,0.66,0.57,1.17,1.04,1.54c0.47,0.37,1.05,0.63,1.74,0.8c0.69,0.16,1.5,0.28,2.43,0.34c0.24,0,0.4,0.08,0.5,0.25
			c0.06,0.1,0.09,0.21,0.11,0.33c0.51,0.01,1.03,0.02,1.59,0.02c0.23,0,0.4-0.07,0.51-0.21c0.11-0.14,0.16-0.31,0.16-0.5
			c0-0.19-0.05-0.36-0.14-0.52c-0.09-0.16-0.26-0.23-0.49-0.23c-0.92-0.06-1.72-0.16-2.4-0.31c-0.68-0.15-1.26-0.4-1.73-0.74
			s-0.81-0.81-1.03-1.42c-0.22-0.61-0.33-1.42-0.33-2.43v-6.49c0-0.41,0.07-0.65,0.21-0.75c0.14-0.09,0.37-0.14,0.7-0.14
			c1.91-0.06,3.7-0.24,5.36-0.55c1.66-0.31,3.1-0.8,4.32-1.48c1.22-0.68,2.18-1.56,2.88-2.65c0.7-1.09,1.05-2.47,1.05-4.13
			C63.94,51.18,63.65,49.98,63.08,49z"/>
		<path class="st3" d="M48.13,59.41c0.47,0,0.9-0.01,1.33-0.04c-0.02-0.07-0.04-0.13-0.04-0.22V49c0-0.92,0.2-1.53,0.6-1.82
			c0.4-0.29,1.22-0.43,2.46-0.43c1.01,0,1.87,0.1,2.61,0.29c-0.02-0.02-0.04-0.05-0.06-0.08c-0.94-1.04-2.54-1.56-4.82-1.56
			c-1.26,0-2.09,0.16-2.49,0.47c-0.4,0.31-0.6,0.97-0.6,1.97v10.98c0,0.25,0.07,0.41,0.21,0.48C47.47,59.37,47.74,59.41,48.13,59.41
			z"/>
	</g>
	<polygon class="st4" points="54.78,99.88 48.13,99.88 49.42,98.11 52.69,98.11 83.35,59.15 52.52,21.59 54.22,18.63 87.2,59.15 	
		"/>
	<g>
		<g>
			<path class="st5" d="M104.49,92.09c-0.07,0.38-0.41,1.57-0.52,1.92h-5.38v-0.34c1.03-0.1,1.13-0.16,1.13-1.13v-4.51
				c0-0.97-0.11-1.03-1.02-1.12v-0.34h3.16v0.34c-0.91,0.09-1.03,0.14-1.03,1.12v4.61c0,0.69,0.08,0.87,0.73,0.88
				c0.01,0,0.78,0.01,0.85,0.01c0.6,0,0.77-0.08,1.03-0.37c0.27-0.28,0.52-0.75,0.7-1.18L104.49,92.09z"/>
			<path class="st5" d="M112.34,92.16c-0.07,0.3-0.38,1.5-0.49,1.84h-5.63v-0.34c1.06-0.08,1.14-0.18,1.14-1.12v-4.49
				c0-1.01-0.13-1.07-0.97-1.15v-0.34h3.54c1.1,0,1.54-0.01,1.68-0.02c0.01,0.27,0.06,1.14,0.1,1.77l-0.36,0.06
				c-0.1-0.39-0.23-0.67-0.37-0.9c-0.19-0.35-0.43-0.43-1.1-0.43h-1.02c-0.37,0-0.4,0.03-0.4,0.37v2.5h1.24
				c0.82,0,0.89-0.17,1.03-0.96h0.37v2.39h-0.37c-0.15-0.83-0.25-0.95-1.04-0.95h-1.23v2.22c0,0.8,0.21,0.9,0.81,0.91h1.02
				c0.69,0,0.81-0.1,1.06-0.4c0.23-0.26,0.47-0.72,0.63-1.07L112.34,92.16z"/>
			<path class="st5" d="M118.19,94.01v-0.34c0.74-0.09,0.81-0.21,0.65-0.65c-0.14-0.43-0.36-0.99-0.59-1.66h-2.43
				c-0.17,0.49-0.34,0.93-0.49,1.38c-0.25,0.74-0.07,0.83,0.86,0.94v0.34h-2.67v-0.34c0.72-0.09,0.9-0.18,1.3-1.19l2.37-5.99
				l0.4-0.07c0.72,1.96,1.51,4.1,2.23,6.07c0.38,1.01,0.48,1.1,1.28,1.19v0.34H118.19z M117.07,88.02
				c-0.36,0.95-0.74,1.95-1.07,2.84h2.08L117.07,88.02z"/>
			<path class="st5" d="M125.94,86.57c1.59,0,2.61,0.32,3.33,0.99c0.56,0.55,0.98,1.35,0.98,2.46c0,1.33-0.55,2.41-1.43,3.07
				c-0.86,0.65-1.97,0.91-3.36,0.91h-2.76v-0.34c0.96-0.09,1.02-0.17,1.02-1.11v-4.52c0-0.98-0.13-1.03-1.02-1.12v-0.34H125.94z
				 M124.83,92.47c0,0.85,0.34,1.1,1.19,1.1c1.97,0,2.99-1.35,2.99-3.38c0-1.22-0.4-2.17-1.24-2.71c-0.52-0.36-1.17-0.49-1.93-0.49
				c-0.5,0-0.76,0.07-0.86,0.16c-0.1,0.07-0.14,0.21-0.14,0.64V92.47z"/>
			<path class="st5" d="M136.78,93.89v-7.78c0-0.08,0.04-0.11,0.11-0.11h0.58c0.08,0,0.11,0.04,0.11,0.11v7.78
				c0,0.08-0.04,0.11-0.11,0.11h-0.58C136.82,94.01,136.78,93.97,136.78,93.89z"/>
			<path class="st5" d="M144.1,94.01v-0.34c0.93-0.1,1.02-0.15,1.02-1.12v-4.51c0-0.98-0.1-1.03-1.02-1.13v-0.34h3.15v0.34
				c-0.93,0.1-1.03,0.15-1.03,1.13v4.51c0,0.98,0.09,1.02,1.03,1.12v0.34H144.1z"/>
			<path class="st5" d="M157.43,86.91c-0.73,0.08-0.96,0.2-1,0.73c-0.02,0.38-0.04,0.84-0.04,1.9v4.58h-0.47l-4.87-5.93v2.81
				c0,1.02,0.03,1.53,0.06,1.86c0.03,0.57,0.3,0.76,1.13,0.82v0.34h-2.79v-0.34c0.7-0.06,0.98-0.23,1.02-0.78
				c0.04-0.37,0.06-0.87,0.06-1.9V88.1c0-0.33-0.02-0.53-0.23-0.79c-0.22-0.29-0.46-0.35-1.01-0.4v-0.34h1.81l4.76,5.63v-2.67
				c0-1.05-0.02-1.52-0.06-1.88c-0.03-0.51-0.28-0.68-1.2-0.74v-0.34h2.82V86.91z"/>
			<path class="st5" d="M163.36,88.34c-0.2-0.75-0.52-1.51-1.59-1.51c-0.85,0-1.18,0.62-1.18,1.22c0,0.76,0.49,1.16,1.45,1.65
				c1.35,0.69,1.97,1.23,1.97,2.32c0,1.23-1.05,2.15-2.56,2.15c-0.69,0-1.3-0.19-1.78-0.37c-0.09-0.31-0.23-1.16-0.31-1.76
				l0.37-0.09c0.23,0.76,0.76,1.8,1.93,1.8c0.8,0,1.29-0.55,1.29-1.29c0-0.84-0.46-1.2-1.46-1.74c-1.2-0.65-1.89-1.2-1.89-2.29
				c0-1.05,0.86-2.01,2.41-2.01c0.67,0,1.29,0.17,1.53,0.22c0.05,0.41,0.1,0.9,0.19,1.63L163.36,88.34z"/>
			<path class="st5" d="M169.13,86.57c0.83,0,1.49,0.15,1.96,0.49c0.47,0.34,0.78,0.88,0.78,1.64c0,1.67-1.43,2.35-2.54,2.35
				c-0.12,0-0.24-0.01-0.31-0.02l-0.77-0.2v1.74c0,0.96,0.08,0.99,1.12,1.1v0.34h-3.24v-0.34c0.96-0.1,1.02-0.17,1.02-1.12v-4.51
				c0-1.01-0.12-1.04-1.02-1.13v-0.34H169.13z M168.25,90.41c0.14,0.07,0.43,0.14,0.79,0.14c0.72,0,1.66-0.37,1.66-1.83
				c0-1.26-0.8-1.75-1.72-1.75c-0.32,0-0.54,0.06-0.61,0.13c-0.09,0.08-0.12,0.21-0.12,0.5V90.41z"/>
			<path class="st5" d="M173.96,94.01v-0.34c0.93-0.1,1.02-0.15,1.02-1.12v-4.51c0-0.98-0.1-1.03-1.02-1.13v-0.34h3.15v0.34
				c-0.93,0.1-1.03,0.15-1.03,1.13v4.51c0,0.98,0.09,1.02,1.03,1.12v0.34H173.96z"/>
			<path class="st5" d="M186.23,94.09c-0.13,0-0.26-0.01-0.41-0.02c-0.95-0.06-1.39-0.29-1.86-0.96c-0.43-0.59-0.83-1.31-1.2-1.91
				c-0.22-0.36-0.37-0.42-0.91-0.42l-0.37,0v1.77c0,0.96,0.12,1.02,1.03,1.12v0.34h-3.13v-0.34c0.93-0.1,1.02-0.15,1.02-1.12v-4.53
				c0-0.96-0.12-1.01-1.02-1.11v-0.34h2.99c0.87,0,1.43,0.1,1.87,0.4c0.47,0.3,0.78,0.81,0.78,1.51c0,0.99-0.64,1.59-1.47,1.95
				c0.2,0.35,0.68,1.11,1.03,1.63c0.42,0.61,0.64,0.9,0.9,1.18c0.3,0.33,0.54,0.45,0.81,0.52L186.23,94.09z M181.99,90.37
				c0.58,0,0.95-0.09,1.23-0.33c0.43-0.33,0.61-0.78,0.61-1.39c0-1.22-0.79-1.67-1.63-1.67c-0.33,0-0.51,0.05-0.59,0.11
				c-0.1,0.08-0.13,0.2-0.13,0.48v2.79H181.99z"/>
			<path class="st5" d="M193.83,92.16c-0.07,0.3-0.38,1.5-0.49,1.84h-5.63v-0.34c1.06-0.08,1.14-0.18,1.14-1.12v-4.49
				c0-1.01-0.13-1.07-0.97-1.15v-0.34h3.54c1.1,0,1.54-0.01,1.68-0.02c0.01,0.27,0.06,1.14,0.1,1.77l-0.36,0.06
				c-0.1-0.39-0.23-0.67-0.37-0.9c-0.19-0.35-0.43-0.43-1.1-0.43h-1.02c-0.37,0-0.4,0.03-0.4,0.37v2.5h1.24
				c0.82,0,0.89-0.17,1.03-0.96h0.37v2.39h-0.37c-0.15-0.83-0.25-0.95-1.04-0.95h-1.23v2.22c0,0.8,0.21,0.9,0.81,0.91h1.02
				c0.69,0,0.81-0.1,1.06-0.4c0.23-0.26,0.47-0.72,0.63-1.07L193.83,92.16z"/>
			<path class="st5" d="M200.1,93.89v-7.78c0-0.08,0.04-0.11,0.11-0.11h0.58c0.08,0,0.11,0.04,0.11,0.11v7.78
				c0,0.08-0.04,0.11-0.11,0.11h-0.58C200.14,94.01,200.1,93.97,200.1,93.89z"/>
			<path class="st5" d="M207.42,94.01v-0.34c0.93-0.1,1.02-0.15,1.02-1.12v-4.51c0-0.98-0.1-1.03-1.02-1.13v-0.34h3.15v0.34
				c-0.93,0.1-1.03,0.15-1.03,1.13v4.51c0,0.98,0.09,1.02,1.03,1.12v0.34H207.42z"/>
			<path class="st5" d="M220.75,86.91c-0.73,0.08-0.96,0.2-1,0.73c-0.02,0.38-0.04,0.84-0.04,1.9v4.58h-0.47l-4.87-5.93v2.81
				c0,1.02,0.03,1.53,0.06,1.86c0.03,0.57,0.3,0.76,1.13,0.82v0.34h-2.79v-0.34c0.7-0.06,0.98-0.23,1.02-0.78
				c0.04-0.37,0.06-0.87,0.06-1.9V88.1c0-0.33-0.02-0.53-0.23-0.79c-0.22-0.29-0.46-0.35-1.01-0.4v-0.34h1.81l4.76,5.63v-2.67
				c0-1.05-0.02-1.52-0.06-1.88c-0.03-0.51-0.28-0.68-1.2-0.74v-0.34h2.82V86.91z"/>
			<path class="st5" d="M230.69,86.91c-0.73,0.08-0.96,0.2-1,0.73c-0.02,0.38-0.04,0.84-0.04,1.9v4.58h-0.47l-4.87-5.93v2.81
				c0,1.02,0.03,1.53,0.06,1.86c0.03,0.57,0.3,0.76,1.13,0.82v0.34h-2.79v-0.34c0.7-0.06,0.98-0.23,1.02-0.78
				c0.04-0.37,0.06-0.87,0.06-1.9V88.1c0-0.33-0.02-0.53-0.23-0.79c-0.22-0.29-0.46-0.35-1.01-0.4v-0.34h1.81l4.76,5.63v-2.67
				c0-1.05-0.02-1.52-0.06-1.88c-0.03-0.51-0.28-0.68-1.2-0.74v-0.34h2.82V86.91z"/>
			<path class="st5" d="M236.59,86.41c1.98,0,3.73,1.51,3.73,3.78c0,2.45-1.68,3.99-3.8,3.99c-2.21,0-3.82-1.67-3.82-3.83
				C232.7,88.32,234.15,86.41,236.59,86.41z M236.37,86.85c-1.26,0-2.37,1.09-2.37,3.21c0,2.09,1.09,3.67,2.7,3.67
				c1.33,0,2.34-1.03,2.34-3.22C239.04,88.13,237.84,86.85,236.37,86.85z"/>
			<path class="st5" d="M249.76,86.91c-0.76,0.1-0.96,0.2-1.38,1.24c-0.32,0.78-1.82,4.43-2.43,5.98h-0.42
				c-0.61-1.67-1.68-4.57-2.31-6.18c-0.33-0.85-0.51-0.98-1.22-1.04v-0.34h3.01l0,0.34c-0.84,0.1-0.88,0.22-0.72,0.66
				c0.3,0.86,1.14,3.15,1.8,4.88c0.62-1.5,1.35-3.31,1.84-4.63c0.26-0.69,0.13-0.8-0.81-0.91v-0.34h2.65V86.91z"/>
			<path class="st5" d="M254.3,94.01v-0.34c0.74-0.09,0.81-0.21,0.65-0.65c-0.14-0.43-0.36-0.99-0.59-1.66h-2.43
				c-0.17,0.49-0.34,0.93-0.49,1.38c-0.25,0.74-0.07,0.83,0.86,0.94v0.34h-2.67v-0.34c0.72-0.09,0.9-0.18,1.3-1.19l2.37-5.99
				l0.4-0.07c0.72,1.96,1.51,4.1,2.23,6.07c0.38,1.01,0.48,1.1,1.28,1.19v0.34H254.3z M253.18,88.02c-0.36,0.95-0.74,1.95-1.07,2.84
				h2.08L253.18,88.02z"/>
			<path class="st5" d="M263.96,88.4c-0.11-0.39-0.26-0.78-0.39-0.98c-0.19-0.3-0.3-0.38-0.93-0.38h-1.07v5.53
				c0,0.9,0.1,1.02,1.17,1.09v0.34h-3.41v-0.34c1.05-0.07,1.14-0.18,1.14-1.09v-5.53h-0.98c-0.63,0-0.81,0.07-1.01,0.41
				c-0.14,0.23-0.25,0.53-0.39,0.96h-0.36c0.07-0.72,0.14-1.47,0.17-2.1h0.28c0.17,0.27,0.3,0.27,0.62,0.27h4.54
				c0.32,0,0.42-0.05,0.6-0.27h0.28c0,0.53,0.05,1.38,0.1,2.06L263.96,88.4z"/>
			<path class="st5" d="M272.37,92.16c-0.07,0.3-0.38,1.5-0.49,1.84h-5.63v-0.34c1.06-0.08,1.14-0.18,1.14-1.12v-4.49
				c0-1.01-0.13-1.07-0.97-1.15v-0.34h3.54c1.1,0,1.54-0.01,1.68-0.02c0.01,0.27,0.06,1.14,0.1,1.77l-0.36,0.06
				c-0.1-0.39-0.23-0.67-0.37-0.9c-0.19-0.35-0.43-0.43-1.1-0.43h-1.02c-0.37,0-0.4,0.03-0.4,0.37v2.5h1.24
				c0.82,0,0.89-0.17,1.03-0.96h0.37v2.39h-0.37c-0.15-0.83-0.25-0.95-1.04-0.95h-1.23v2.22c0,0.8,0.21,0.9,0.81,0.91h1.02
				c0.69,0,0.81-0.1,1.06-0.4c0.23-0.26,0.47-0.72,0.63-1.07L272.37,92.16z"/>
		</g>
	</g>
</g>
</svg>

